<?xml version="1.0" standalone="no"?>
<!DOCTYPE svg PUBLIC "-//W3C//DTD SVG 20010904//EN"
 "http://www.w3.org/TR/2001/REC-SVG-20010904/DTD/svg10.dtd">
<svg version="1.0" xmlns="http://www.w3.org/2000/svg"
 width="788.000000pt" height="788.000000pt" viewBox="0 0 788.000000 788.000000"
 preserveAspectRatio="xMidYMid meet">

<g transform="translate(0.000000,788.000000) scale(0.100000,-0.100000)"
fill="#000000" stroke="none">
<path d="M1300 7838 c-13 -7 -35 -29 -47 -47 -22 -33 -23 -41 -23 -270 0 -263
7 -331 46 -446 64 -192 176 -348 337 -467 37 -28 67 -52 67 -54 0 -2 -17 -32
-38 -66 -115 -189 -191 -375 -234 -569 -20 -91 -22 -132 -22 -329 -1 -194 3
-241 22 -338 34 -168 107 -361 180 -476 17 -27 29 -52 27 -57 -3 -4 -44 -28
-91 -53 -184 -98 -351 -240 -477 -404 -91 -120 -114 -156 -176 -279 -104 -207
-163 -435 -182 -702 -29 -423 74 -791 330 -1178 192 -290 470 -555 836 -801
194 -129 198 -131 233 -105 22 16 28 29 30 68 2 26 -2 61 -7 78 -6 17 -10 32
-8 33 1 2 48 -38 102 -88 95 -86 335 -274 407 -318 85 -51 180 12 164 111 -6
37 -2 34 147 -114 84 -84 177 -170 206 -192 l52 -40 -38 -6 c-21 -4 -162 -9
-313 -13 -1082 -25 -1800 -100 -1842 -191 -15 -33 0 -50 60 -69 119 -39 581
-71 1522 -106 462 -18 1620 -24 2080 -11 917 25 1596 67 1730 107 133 39 135
84 4 129 -202 68 -901 126 -1726 142 -186 3 -338 9 -338 13 0 4 26 28 58 53
68 53 238 218 305 296 l47 53 0 -56 c0 -70 19 -102 69 -117 48 -14 80 -1 191
81 103 77 175 138 299 253 51 48 95 86 97 84 3 -2 -3 -20 -11 -40 -30 -72 -8
-147 43 -147 29 0 199 112 374 247 408 314 722 730 857 1133 75 224 95 348 96
590 0 238 -15 363 -65 541 -65 228 -152 404 -277 559 -118 145 -311 321 -441
399 -39 24 -72 45 -72 48 0 3 8 17 19 31 54 78 141 285 175 419 61 239 72 544
27 755 -40 191 -141 443 -234 587 -19 30 -33 59 -31 65 3 6 22 24 44 39 119
84 216 205 291 360 75 157 81 195 86 517 l4 285 -23 34 c-25 38 -66 56 -102
47 -13 -3 -94 -77 -182 -164 -181 -180 -244 -233 -472 -395 l-163 -116 -98 73
c-319 237 -684 386 -1111 451 -148 23 -438 30 -585 16 -297 -30 -643 -126
-893 -248 -96 -47 -346 -205 -433 -274 l-27 -21 -123 87 c-213 151 -359 272
-518 432 -163 164 -187 179 -241 151z m2805 -412 c324 -59 611 -169 846 -324
109 -71 132 -93 111 -100 -21 -7 -414 -246 -517 -315 -287 -190 -570 -463
-770 -742 l-20 -28 -94 124 c-105 138 -348 387 -481 492 -122 97 -347 244
-555 365 -99 57 -184 107 -189 112 -19 18 279 192 449 263 151 62 420 137 560
156 44 6 94 13 110 15 74 10 464 -3 550 -18z m-2485 -171 c180 -150 373 -284
815 -566 72 -46 336 -219 362 -237 23 -16 4 -13 -229 39 -475 105 -729 210
-878 363 -24 25 -48 46 -53 46 -13 0 -31 24 -72 97 -43 73 -85 232 -85 316 0
56 1 59 18 45 9 -9 64 -55 122 -103z m4385 39 c-8 -13 -26 -66 -39 -117 -47
-181 -169 -351 -325 -452 -146 -95 -403 -183 -716 -245 -110 -22 -204 -40
-210 -40 -10 0 100 73 432 285 415 265 611 404 782 556 70 61 87 72 89 57 2
-11 -4 -30 -13 -44z m-3442 -934 c350 -58 468 -93 564 -164 138 -102 365 -344
501 -533 80 -113 115 -148 136 -140 8 3 41 41 72 84 222 301 440 525 615 631
20 12 59 29 85 37 63 19 317 67 507 95 l147 22 53 -40 c28 -23 81 -70 116
-105 l63 -65 35 14 c32 14 210 64 225 64 14 0 78 -140 113 -243 46 -137 65
-264 65 -432 0 -236 -42 -417 -140 -610 -132 -260 -346 -447 -605 -528 -126
-39 -219 -50 -373 -44 -155 6 -263 31 -387 91 -72 34 -188 107 -199 125 -4 5
23 41 59 80 99 108 100 106 -87 302 -84 87 -197 207 -251 266 -63 70 -106 109
-121 111 -19 3 -61 -37 -234 -220 -115 -123 -224 -236 -242 -253 -79 -74 -77
-123 10 -218 33 -36 60 -69 60 -74 0 -13 -158 -108 -228 -137 -105 -44 -217
-67 -357 -73 -217 -9 -393 35 -574 142 -520 310 -704 1061 -405 1658 32 62 37
67 67 67 17 0 86 -15 152 -34 l120 -34 50 48 c88 85 159 139 183 139 13 1 105
-13 205 -29z m1188 -1342 c0 -10 2 -10 6 0 3 9 11 6 26 -11 12 -13 59 -64 104
-114 l83 -90 -80 -107 c-129 -172 -134 -181 -135 -258 0 -45 -4 -68 -12 -68
-6 0 -47 51 -91 113 -44 61 -103 144 -131 182 -28 39 -50 75 -49 82 5 20 250
283 264 283 8 0 14 -6 15 -12z m223 -353 c-9 -14 -18 -25 -21 -25 -5 0 5 18
20 38 17 22 18 13 1 -13z m-24 -38 c0 -2 -10 -12 -22 -23 l-23 -19 19 23 c18
21 26 27 26 19z m-2160 -113 c0 -3 -13 -23 -29 -43 -93 -117 -279 -574 -351
-861 -46 -183 -99 -483 -100 -562 -1 -29 -20 -53 -141 -178 -78 -80 -147 -154
-155 -164 -7 -11 -16 -17 -19 -14 -3 3 -15 52 -27 109 -19 89 -22 137 -23 334
0 203 3 242 23 337 49 231 129 442 217 574 124 186 341 369 535 450 59 25 70
28 70 18z m2050 -34 c-6 -11 -16 -20 -22 -20 -6 0 -3 9 7 20 10 11 20 20 22
20 2 0 -1 -9 -7 -20z m2060 -120 c46 -13 181 -145 256 -251 141 -201 230 -481
249 -784 11 -167 -30 -452 -68 -484 -8 -6 -37 18 -93 78 l-81 86 -16 181 c-34
374 -163 826 -308 1076 -22 37 -44 70 -49 73 -40 25 43 44 110 25z m-3669
-154 c104 -55 229 -99 343 -122 l87 -17 -49 -51 c-249 -258 -404 -549 -462
-871 -25 -132 -32 -359 -16 -499 l9 -80 -34 32 c-27 25 -36 29 -49 19 -13 -10
-13 -10 -2 4 11 15 8 21 -24 48 -21 16 -42 27 -48 24 -6 -3 -8 -3 -4 2 4 4
-18 38 -50 74 -31 37 -79 99 -106 138 l-48 71 12 119 c24 245 85 517 161 727
33 90 186 426 195 426 1 0 39 -20 85 -44z m1366 -72 c-3 -3 -12 -4 -19 -1 -8
3 -5 6 6 6 11 1 17 -2 13 -5z m466 -25 c240 -60 441 -173 613 -344 220 -219
344 -483 373 -797 17 -175 -5 -353 -65 -537 -44 -135 -108 -255 -194 -363 -83
-104 -151 -160 -264 -217 -78 -39 -106 -62 -181 -153 -44 -53 -272 -122 -463
-140 -201 -19 -392 4 -582 69 -105 36 -125 48 -149 87 -35 56 -103 111 -201
162 -189 97 -342 301 -434 579 -15 43 -33 117 -41 163 -16 92 -19 338 -5 412
6 34 8 17 6 -65 -2 -60 -1 -95 1 -76 5 39 31 71 42 53 12 -20 56 -17 88 6 22
15 32 32 37 61 3 21 19 80 36 131 16 50 27 97 23 102 -3 6 -2 8 4 5 6 -4 15 5
21 19 l12 25 41 -22 c30 -15 51 -19 75 -14 70 13 99 104 49 157 -14 15 -25 32
-25 39 0 12 30 48 145 171 l72 76 17 -39 c34 -76 100 -100 152 -56 20 18 28
35 31 73 4 49 1 58 -53 132 -16 21 -15 22 5 22 11 0 58 16 104 35 142 58 289
96 360 93 l62 -3 6 -37 c5 -35 5 -37 -30 -43 -20 -4 -46 -13 -58 -21 -48 -30
-50 -47 -57 -429 -4 -198 -9 -361 -11 -363 -1 -2 -30 8 -64 23 -132 55 -383
145 -406 145 -33 0 -91 -53 -105 -96 -18 -53 -15 -104 7 -125 10 -9 95 -48
188 -84 304 -119 308 -121 330 -161 31 -58 96 -96 175 -103 66 -6 67 -7 150
-81 46 -41 126 -114 177 -162 87 -82 96 -88 136 -88 76 0 126 49 127 122 l0
46 -200 193 c-157 151 -200 198 -200 218 0 14 -14 44 -31 66 l-30 39 1 372 c2
403 0 419 -54 461 -14 12 -26 23 -26 27 0 8 122 66 140 66 12 0 12 2 2 9 -17
10 256 9 283 -2 11 -5 9 -1 -5 7 -14 8 -33 15 -42 16 -14 0 -18 9 -18 39 0 22
6 42 13 45 6 3 1 3 -12 0 -20 -5 -23 -3 -18 10 6 14 3 16 -14 11 -13 -4 -25
-2 -29 5 -4 7 -21 13 -38 14 -17 0 -28 4 -25 9 2 4 -13 7 -34 8 -21 0 -47 4
-58 9 -40 17 34 11 118 -11z m-186 -9 c-3 -11 -2 -45 2 -76 7 -51 6 -55 -11
-51 -10 3 -18 2 -18 -2 0 -4 -12 -13 -27 -20 -27 -12 -42 -3 -43 25 0 6 -15
15 -32 19 l-33 8 40 7 c22 4 42 6 44 4 2 -2 13 8 24 22 12 16 25 23 36 19 12
-5 13 -3 4 6 -8 8 -9 18 -1 35 14 29 22 31 15 4z m-206 -57 c13 -16 12 -17 -3
-4 -17 13 -22 21 -14 21 2 0 10 -8 17 -17z m1677 -40 c16 -32 46 -96 64 -143
l35 -85 -48 23 c-26 13 -74 26 -107 29 -75 7 -155 -4 -149 -20 5 -16 296 -165
324 -166 23 -1 33 -23 52 -109 9 -42 8 -44 -12 -37 -94 28 -197 30 -197 4 0
-6 9 -24 21 -40 11 -16 17 -34 13 -40 -4 -8 -3 -9 4 -5 7 4 17 -3 23 -18 7
-14 18 -27 26 -30 15 -6 66 24 80 47 5 7 20 22 34 35 l26 23 0 -28 c0 -15 5
-46 11 -68 7 -22 12 -46 12 -52 0 -18 -49 -16 -56 2 -7 18 -45 20 -62 3 -10
-10 -15 -10 -22 2 -9 13 -10 13 -10 -1 0 -8 5 -20 12 -27 9 -9 9 -12 0 -12 -7
0 -15 14 -18 30 -4 17 -9 30 -13 30 -3 0 -16 3 -27 6 -16 4 -23 0 -28 -18 -5
-17 -9 -19 -12 -8 -55 160 -116 285 -195 404 -49 72 -100 145 -114 162 l-25
31 157 66 c87 37 161 66 164 67 3 0 20 -26 37 -57z m-2223 -23 c-3 -5 -12 -10
-18 -10 -7 0 -6 4 3 10 19 12 23 12 15 0z m92 -146 c-3 -3 -12 -4 -19 -1 -8 3
-5 6 6 6 11 1 17 -2 13 -5z m-525 -490 c-6 -12 -9 -7 -9 16 0 23 3 28 9 16 5
-9 5 -23 0 -32z m-147 -44 c3 -5 1 -10 -4 -10 -6 0 -11 5 -11 10 0 6 2 10 4
10 3 0 8 -4 11 -10z m2805 -34 c0 -26 -6 -18 -14 19 -5 22 -4 26 4 15 5 -8 10
-24 10 -34z m-2833 -56 c-1 -16 -5 -30 -9 -30 -9 0 -10 8 -2 38 9 31 14 28 11
-8z m2840 8 c-3 -8 -6 -5 -6 6 -1 11 2 17 5 13 3 -3 4 -12 1 -19z m-2870 -120
c-3 -7 -5 -2 -5 12 0 14 2 19 5 13 2 -7 2 -19 0 -25z m2901 -418 l-5 -70 21
17 c16 13 15 11 -3 -10 -14 -15 -26 -25 -29 -23 -5 6 9 156 15 156 3 0 3 -32
1 -70z m92 6 c0 -2 -8 -10 -17 -17 -16 -13 -17 -12 -4 4 13 16 21 21 21 13z
m-3440 -99 c0 -16 -18 3 -23 25 -6 22 -5 22 8 4 8 -11 15 -24 15 -29z m46 -42
c-6 -18 25 -29 36 -13 6 10 8 10 8 -2 0 -12 2 -12 9 -2 6 10 10 8 14 -10 4
-12 7 -31 7 -41 0 -15 -3 -16 -22 -6 -13 7 -35 23 -49 37 -23 21 -26 33 -20
60 1 2 6 0 12 -3 6 -4 8 -13 5 -20z m802 -825 c21 -10 50 -33 66 -50 23 -25
26 -33 16 -45 -13 -16 -7 -45 10 -45 5 0 10 8 11 18 1 42 18 -26 18 -78 1 -86
-38 -155 -99 -178 -22 -8 -26 -7 -26 8 0 15 4 16 18 9 12 -7 18 -6 18 1 0 6 4
9 9 6 5 -3 9 13 9 37 0 23 3 57 7 75 6 25 4 32 -8 32 -11 0 -17 -12 -19 -42
-2 -33 -8 -45 -25 -53 -17 -7 -23 -20 -26 -55 -2 -25 -4 13 -5 85 -2 127 -3
130 -29 152 -33 29 -37 29 -57 -1 -12 -19 -16 -56 -18 -150 -3 -144 -9 -151
-74 -94 -93 82 -101 242 -16 332 62 66 140 79 220 36z m1901 -8 c64 -39 96
-98 96 -179 0 -36 -5 -67 -12 -74 -10 -10 -13 -10 -13 2 0 12 -2 12 -10 -1 -8
-12 -10 -9 -10 12 0 19 -14 39 -52 73 -46 41 -56 46 -92 43 l-41 -3 -3 -132
c-1 -73 -5 -133 -8 -133 -13 0 -81 33 -98 48 -31 28 -66 113 -66 162 0 52 35
134 71 167 65 60 157 66 238 15z m-22 -254 c-3 -8 -6 -5 -6 6 -1 11 2 17 5 13
3 -3 4 -12 1 -19z m8 -98 c3 -5 11 -10 16 -10 6 0 8 4 5 8 -3 5 1 9 9 9 21 0
8 -15 -28 -32 -18 -9 -24 -10 -15 -3 15 11 15 13 0 25 -10 7 -12 12 -5 13 6 0
15 -4 18 -10z m-1516 -285 c136 -34 248 -52 379 -60 l112 -8 0 -169 0 -169
-47 27 c-124 71 -303 191 -401 268 -134 105 -183 149 -158 142 10 -4 62 -17
115 -31z"/>
<path d="M3446 7214 c-21 -21 -20 -47 2 -67 24 -22 35 -21 55 1 44 49 -11 112
-57 66z"/>
<path d="M4008 7219 c-21 -12 -24 -59 -6 -77 7 -7 21 -12 33 -12 28 0 45 19
45 50 0 44 -33 62 -72 39z"/>
<path d="M3708 7090 c-77 -23 -119 -82 -120 -166 -1 -98 64 -165 161 -166 57
0 99 19 134 62 58 68 54 150 -10 220 -46 52 -103 69 -165 50z"/>
<path d="M3225 7036 c-126 -58 -136 -237 -17 -304 75 -42 173 -17 222 55 31
45 34 134 7 176 -46 71 -144 105 -212 73z"/>
<path d="M4129 7027 c-45 -30 -81 -115 -73 -172 14 -95 85 -151 181 -143 83 7
136 56 151 140 15 79 -24 154 -95 184 -51 22 -124 18 -164 -9z"/>
<path d="M4612 7028 c-7 -7 -12 -24 -12 -40 0 -36 32 -55 66 -39 29 13 31 44
4 71 -23 23 -41 25 -58 8z"/>
<path d="M2842 7018 c-32 -32 1 -79 44 -59 35 16 31 65 -6 69 -14 2 -31 -3
-38 -10z"/>
<path d="M4536 6884 c-9 -8 -16 -24 -16 -34 0 -22 25 -50 45 -50 20 0 45 28
45 50 0 22 -25 50 -45 50 -7 0 -21 -7 -29 -16z"/>
<path d="M2922 6878 c-19 -19 -14 -56 8 -68 43 -23 83 17 60 60 -12 22 -49 27
-68 8z"/>
<path d="M3465 6681 c-48 -22 -69 -44 -90 -94 -20 -49 -19 -82 6 -135 57 -117
214 -134 290 -29 35 49 39 117 10 175 -23 46 -46 67 -94 87 -47 19 -73 19
-122 -4z"/>
<path d="M3951 6692 c-38 -6 -99 -49 -115 -81 -40 -77 -25 -175 35 -225 102
-86 279 -2 279 134 0 107 -96 190 -199 172z"/>
<path d="M3697 6292 c-15 -9 -37 -37 -49 -60 -18 -38 -19 -49 -9 -82 16 -53
62 -90 113 -90 78 0 128 53 128 135 0 40 -5 52 -34 81 -28 28 -41 34 -77 34
-24 0 -57 -8 -72 -18z"/>
<path d="M2826 5929 c-64 -16 -155 -70 -198 -118 -22 -25 -55 -75 -72 -111
-28 -59 -31 -74 -31 -160 0 -86 3 -101 32 -162 56 -118 156 -193 291 -218 228
-41 451 152 452 391 0 58 -7 65 -33 32 -27 -34 -92 -63 -142 -63 -74 0 -159
57 -184 123 -28 74 -1 168 63 225 l37 32 -33 14 c-46 19 -135 27 -182 15z"/>
<path d="M4465 5926 c-128 -40 -227 -146 -262 -280 -34 -130 11 -280 114 -377
73 -69 147 -101 251 -107 98 -5 156 8 228 53 125 79 197 232 178 376 l-7 52
-18 -36 c-44 -84 -146 -110 -244 -62 -97 47 -133 157 -86 260 17 39 72 95 92
95 5 0 9 4 9 8 0 12 -108 32 -166 31 -27 0 -67 -6 -89 -13z"/>
<path d="M3756 4973 c-3 -4 -5 -74 -4 -157 1 -83 4 -118 5 -78 l4 72 39 0 c21
0 41 6 44 13 5 10 7 10 12 0 3 -7 12 -13 21 -13 11 0 10 6 -7 28 -12 15 -41
53 -64 84 -24 31 -46 54 -50 51z"/>
<path d="M3752 4635 c0 -16 2 -22 5 -12 2 9 2 23 0 30 -3 6 -5 -1 -5 -18z"/>
<path d="M2179 3817 c-83 -24 -112 -47 -131 -106 -28 -86 -8 -92 97 -30 39 23
102 56 142 75 67 31 91 49 80 60 -12 12 -146 13 -188 1z"/>
<path d="M2048 3504 c-27 -8 -48 -20 -48 -27 1 -13 99 -122 105 -116 19 21 93
145 89 151 -8 13 -94 8 -146 -8z"/>
<path d="M2006 3318 c-11 -15 -12 -26 -5 -40 13 -24 46 -23 59 1 13 25 13 27
-6 45 -21 21 -30 20 -48 -6z"/>
<path d="M4256 3799 c-61 -48 -75 -135 -30 -188 63 -76 174 -3 174 114 0 27
-8 44 -29 66 -35 35 -77 38 -115 8z"/>
<path d="M4634 3454 c-39 -19 -64 -62 -64 -112 0 -33 6 -45 32 -67 44 -37 97
-30 146 18 30 30 35 43 36 82 1 39 -3 50 -27 71 -32 28 -77 31 -123 8z"/>
<path d="M3924 3100 c0 -52 1 -74 3 -47 2 26 2 68 0 95 -2 26 -3 4 -3 -48z"/>
<path d="M2613 2939 c-61 -22 -83 -112 -38 -153 52 -48 198 -42 243 9 43 50
17 122 -52 145 -37 12 -120 11 -153 -1z"/>
<path d="M4714 2936 c-60 -27 -84 -100 -46 -145 21 -26 121 -47 176 -37 88 17
115 99 52 162 -31 31 -39 34 -92 34 -33 -1 -73 -7 -90 -14z"/>
<path d="M2744 2376 c-53 -52 -58 -88 -18 -135 21 -26 33 -31 67 -31 48 0 90
24 118 66 26 40 24 77 -7 113 -22 26 -33 31 -71 31 -41 0 -51 -5 -89 -44z"/>
<path d="M4612 2413 c-20 -8 -42 -59 -42 -99 0 -28 8 -44 34 -70 28 -28 41
-34 79 -34 64 0 97 33 97 96 0 39 -5 51 -34 80 -29 29 -41 34 -77 33 -24 0
-50 -3 -57 -6z"/>
<path d="M4333 2223 c9 -2 23 -2 30 0 6 3 -1 5 -18 5 -16 0 -22 -2 -12 -5z"/>
<path d="M3156 2079 c-63 -49 -77 -141 -30 -190 51 -54 124 -28 160 56 22 55
18 93 -15 126 -35 35 -77 38 -115 8z"/>
<path d="M4226 2081 c-67 -74 16 -240 108 -217 83 21 86 177 4 222 -35 20 -92
17 -112 -5z"/>
<path d="M3686 1945 c-24 -22 -26 -30 -26 -105 0 -94 9 -116 55 -136 41 -17
73 -7 104 32 17 22 21 40 21 101 0 69 -2 77 -29 104 -38 38 -87 39 -125 4z"/>
<path d="M810 6678 c-5 -13 -16 -50 -25 -83 -21 -76 -81 -140 -140 -150 -55
-10 -85 -31 -85 -60 0 -28 34 -55 68 -55 35 0 86 -25 114 -55 24 -26 32 -45
57 -142 12 -42 34 -59 64 -48 18 8 33 44 42 104 11 67 61 116 146 141 57 17
70 25 75 46 8 33 -7 47 -73 68 -88 29 -132 80 -148 171 -10 56 -31 85 -60 85
-17 0 -29 -8 -35 -22z"/>
<path d="M6628 6686 c-8 -8 -18 -35 -21 -60 -14 -97 -69 -163 -157 -186 -56
-15 -70 -26 -70 -55 0 -30 17 -42 78 -56 81 -17 130 -67 146 -149 12 -58 27
-88 46 -93 31 -8 49 14 69 88 25 89 74 140 145 150 26 4 57 15 69 25 18 15 20
22 12 46 -8 23 -21 31 -69 45 -40 12 -72 30 -98 56 -37 36 -42 48 -76 173 -9
30 -51 39 -74 16z"/>
<path d="M5889 6515 c59 -67 68 -75 44 -40 -12 17 -36 44 -54 60 -25 22 -22
17 10 -20z"/>
<path d="M506 5829 c-35 -41 -35 -88 0 -123 48 -48 122 -29 144 38 30 92 -82
159 -144 85z"/>
<path d="M6866 5829 c-35 -41 -34 -83 3 -120 51 -50 131 -28 146 42 20 91 -90
149 -149 78z"/>
</g>
</svg>
